HIERARCHY
ROOT Hips
{
	OFFSET -0.001795 -0.223333 0.028219
	CHANNELS 6 Xposition Yposition Zposition Zrotation Yrotation Xrotation 
	JOINT LeftUpLeg
	{
		OFFSET 0.069520 -0.091406 -0.006815
		CHANNELS 3 Zrotation Yrotation Xrotation
		JOINT LeftLeg
		{
			OFFSET 0.034277 -0.375199 -0.004496
			CHANNELS 3 Zrotation Yrotation Xrotation
			JOINT LeftFoot
			{
				OFFSET -0.013596 -0.397961 -0.043693
				CHANNELS 3 Zrotation Yrotation Xrotation
				JOINT LeftToe
				{
					OFFSET 0.026358 -0.055791 0.119288
					CHANNELS 3 Zrotation Yrotation Xrotation
					End Site
					{
						OFFSET 0.000000 0.000000 0.000000
					}
				}
			}
		}
	}
	JOINT RightUpLeg
	{
		OFFSET -0.067670 -0.090522 -0.004320
		CHANNELS 3 Zrotation Yrotation Xrotation
		JOINT RightLeg
		{
			OFFSET -0.038290 -0.382569 -0.008850
			CHANNELS 3 Zrotation Yrotation Xrotation
			JOINT RightFoot
			{
				OFFSET 0.015774 -0.398415 -0.042312
				CHANNELS 3 Zrotation Yrotation Xrotation
				JOINT RightToe
				{
					OFFSET -0.025372 -0.048144 0.123348
					CHANNELS 3 Zrotation Yrotation Xrotation
					End Site
					{
						OFFSET 0.000000 0.000000 0.000000
					}
				}
			}
		}
	}
	JOINT Spine
	{
		OFFSET -0.002533 0.108963 -0.026696
		CHANNELS 3 Zrotation Yrotation Xrotation
		JOINT Spine1
		{
			OFFSET 0.005487 0.135180 0.001092
			CHANNELS 3 Zrotation Yrotation Xrotation
			JOINT Spine2
			{
				OFFSET 0.001457 0.052922 0.025425
				CHANNELS 3 Zrotation Yrotation Xrotation
				JOINT Neck
				{
					OFFSET -0.002778 0.213870 -0.042857
					CHANNELS 3 Zrotation Yrotation Xrotation
					JOINT Head
					{
						OFFSET 0.005152 0.064970 0.051349
						CHANNELS 3 Zrotation Yrotation Xrotation
						End Site
						{
							OFFSET 0.000000 0.000000 0.000000
						}
					}
				}
				JOINT LeftShoulder
				{
					OFFSET 0.078845 0.121749 -0.034090
					CHANNELS 3 Zrotation Yrotation Xrotation
					JOINT LeftArm
					{
						OFFSET 0.090977 0.030469 -0.008868
						CHANNELS 3 Zrotation Yrotation Xrotation
						JOINT LeftForeArm
						{
							OFFSET 0.259612 -0.012772 -0.027456
							CHANNELS 3 Zrotation Yrotation Xrotation
							JOINT LeftHand
							{
								OFFSET 0.249234 0.008986 -0.001171
								CHANNELS 3 Zrotation Yrotation Xrotation
								End Site
								{
									OFFSET 0.000000 0.000000 0.000000
								}
							}
						}
					}
				}
				JOINT RightShoulder
				{
					OFFSET -0.081759 0.118833 -0.038615
					CHANNELS 3 Zrotation Yrotation Xrotation
					JOINT RightArm
					{
						OFFSET -0.096012 0.032551 -0.009143
						CHANNELS 3 Zrotation Yrotation Xrotation
						JOINT RightForeArm
						{
							OFFSET -0.253742 -0.013329 -0.021401
							CHANNELS 3 Zrotation Yrotation Xrotation
							JOINT RightHand
							{
								OFFSET -0.255298 0.007772 -0.005559
								CHANNELS 3 Zrotation Yrotation Xrotation
								End Site
								{
									OFFSET 0.000000 0.000000 0.000000
								}
							}
						}
					}
				}
			}
		}
	}
}
MOTION
Frames: 11
Frame Time: 0.050000
-0.023309 1.057884 0.132006 -0.518981 3.233279 3.615569 3.088578 -1.448666 -19.911909 -8.369481 1.882529 33.879000 -2.357182 5.999495 26.614085 0.000000 0.000000 0.000000 -2.559331 2.709937 -38.405029 12.225913 -6.059274 50.207620 1.053275 -8.788268 34.523864 0.000000 0.000000 0.000000 3.311515 -0.517224 6.159142 2.662857 -1.291978 0.337446 -4.301879 -3.354710 0.665806 1.017405 -0.132627 -7.909561 0.000000 0.000000 0.000000 -8.347067 -7.391342 2.390944 -53.202595 -28.556324 7.129249 33.524938 -64.244573 -18.221715 0.000000 0.000000 0.000000 4.324420 -1.844485 -1.158335 64.047896 -9.777086 -11.210138 13.832718 20.400268 2.815058 0.000000 0.000000 0.000000 
-0.035863 1.044679 0.141643 1.527311 0.293756 1.174742 9.453780 -0.510091 -38.725602 -16.459063 11.686667 71.273508 1.745744 9.848061 22.419025 0.000000 0.000000 0.000000 3.648031 2.520934 -19.729664 4.088656 -0.331622 35.041430 -1.600632 -9.757388 19.453629 0.000000 0.000000 0.000000 0.631633 -0.388341 8.243035 0.105019 -0.056115 0.198024 -2.728724 5.968243 1.458933 3.324180 -1.336900 -7.739890 0.000000 0.000000 0.000000 -10.521019 -5.852563 0.568271 -55.408826 -16.683663 1.329206 0.881945 -58.853320 0.162941 0.000000 0.000000 0.000000 9.503963 -0.485994 -0.324636 60.121222 2.751975 -3.748757 11.555410 25.273994 3.569208 0.000000 0.000000 0.000000 
-0.045825 1.009076 0.141830 4.173674 -5.058043 -1.469808 17.103562 5.470260 -58.144047 -16.556454 22.723671 102.240908 2.266720 9.673095 16.979717 0.000000 0.000000 0.000000 3.645437 0.938354 -7.842312 1.434697 0.833978 22.884688 -1.316304 -5.417794 4.517643 0.000000 0.000000 0.000000 -3.318971 -0.034266 13.356340 -1.786418 0.836859 -3.307009 -0.781921 14.794314 3.768070 4.539952 -1.146963 -11.312754 0.000000 0.000000 0.000000 -11.672142 0.511060 -3.087147 -52.430356 -4.138558 -4.506936 -13.467957 -51.389983 6.049611 0.000000 0.000000 0.000000 9.619170 4.923075 2.882595 53.836349 16.786179 2.681204 1.939512 38.114720 3.179047 0.000000 0.000000 0.000000 
-0.048712 0.986421 0.137126 6.335500 -10.740115 -4.005462 17.858804 11.262229 -71.763362 -13.590036 22.268090 112.576014 2.684888 6.118069 0.795762 0.000000 0.000000 0.000000 3.898931 0.131753 -1.852234 -2.499709 1.833400 18.369576 -1.096478 -0.107124 -3.807708 0.000000 0.000000 0.000000 -4.870997 0.494989 19.410041 -4.288416 1.915262 -3.475210 -2.723141 23.874947 1.077847 7.941668 -1.827701 -15.610212 0.000000 0.000000 0.000000 -11.389895 0.353870 -3.890792 -46.064429 11.249684 -9.356093 -23.174832 -52.428708 9.693232 0.000000 0.000000 0.000000 8.888487 5.548933 3.875834 48.000950 38.616631 12.303157 -36.093812 40.394711 -8.205098 0.000000 0.000000 0.000000 
-0.045837 1.002583 0.137668 7.284513 -13.048114 -4.681486 16.617738 12.773591 -76.288683 -16.791682 23.067231 102.138489 3.950032 8.964347 2.113386 0.000000 0.000000 0.000000 2.280365 -0.220823 1.558649 -6.066000 2.345781 15.049854 2.885789 4.448669 3.276073 0.000000 0.000000 0.000000 -5.439366 0.722143 19.950497 -7.132352 3.375198 -1.710887 -1.318370 27.339687 1.728987 10.351865 -2.192486 -19.348065 0.000000 0.000000 0.000000 -8.889621 2.625379 -4.110179 -44.176447 23.200587 -13.841729 -34.767900 -50.999771 14.839531 0.000000 0.000000 0.000000 -0.113846 6.946511 2.784809 42.226288 55.017859 20.095866 -56.194510 28.100570 -8.828903 0.000000 0.000000 0.000000 
-0.040268 1.039781 0.144667 7.527005 -13.826731 -3.266662 13.134574 9.293693 -71.890245 -18.242923 19.629545 82.747582 -0.158146 3.349134 9.051150 0.000000 0.000000 0.000000 -1.593157 0.238476 -2.156967 -3.262491 2.164429 18.706965 8.731076 9.317587 13.029826 0.000000 0.000000 0.000000 -7.699583 1.200462 19.576009 -6.577417 2.841861 -4.731852 0.780428 29.370754 5.090276 11.554872 -3.336865 -17.210553 0.000000 0.000000 0.000000 -3.480661 9.052963 -4.321001 -38.594845 32.983287 -16.113067 -55.279186 -41.174369 19.344620 0.000000 0.000000 0.000000 -8.852573 4.895674 0.308840 43.843564 62.578939 27.537050 -65.522729 17.014015 -4.218202 0.000000 0.000000 0.000000 
-0.033611 1.079308 0.154164 5.259955 -16.431393 -0.979896 10.858924 6.533214 -61.332225 -17.696355 16.608337 66.863515 -1.763040 3.344151 17.700568 0.000000 0.000000 0.000000 -0.923277 1.840877 -16.889210 3.557175 3.406452 43.468284 6.316650 1.641875 18.466268 0.000000 0.000000 0.000000 -5.324828 0.612867 15.881285 -6.161244 2.757825 -2.866241 0.031529 32.470454 4.427150 7.497037 -1.878892 -11.906668 0.000000 0.000000 0.000000 1.819618 10.386453 -2.528435 -38.310460 41.584368 -20.148996 -63.578294 -31.531595 16.210005 0.000000 0.000000 0.000000 -11.538854 2.734830 -0.914325 46.857606 62.983291 31.242000 -67.292864 20.013252 -5.823194 0.000000 0.000000 0.000000 
-0.028112 1.085393 0.162263 2.395731 -15.569532 -0.262344 7.082979 2.027459 -47.822626 -15.116740 12.414000 54.956572 0.527519 5.933495 16.726760 0.000000 0.000000 0.000000 -3.350205 4.317573 -35.539142 19.620197 -6.897370 78.165259 -2.606048 -12.666019 25.206395 0.000000 0.000000 0.000000 -0.849483 -0.152732 15.312140 -5.394522 2.442748 -2.350504 -0.186168 29.454416 5.268237 6.162991 -1.382932 -11.122563 0.000000 0.000000 0.000000 2.085910 9.633236 -2.224242 -40.099206 43.162810 -21.514734 -67.504821 -29.712852 16.651623 0.000000 0.000000 0.000000 -9.549410 3.680163 -0.150443 45.962378 58.364663 26.243375 -69.309421 35.403197 -15.962798 0.000000 0.000000 0.000000 
-0.025878 1.064755 0.163284 -1.194567 -11.637198 -2.129723 4.098880 -0.706388 -32.143941 -11.142404 6.748772 42.611995 0.259486 5.321324 16.473936 0.000000 0.000000 0.000000 -9.827905 4.033340 -52.984332 29.838740 -30.125193 99.328430 -7.920858 -19.029119 29.878086 0.000000 0.000000 0.000000 4.223478 -1.046960 18.038773 -4.145193 2.099096 1.322903 -2.512319 21.586534 2.751183 6.438884 -1.802959 -12.284541 0.000000 0.000000 0.000000 -3.074452 5.794470 -2.824425 -48.291292 37.355418 -22.176474 -62.543229 -40.752640 23.461900 0.000000 0.000000 0.000000 -3.796833 4.507034 1.227123 44.961846 48.898309 18.129868 -67.618081 52.851911 -27.958371 0.000000 0.000000 0.000000 
-0.028795 1.036309 0.158640 -3.863044 -6.512432 -3.667511 1.497839 -1.395249 -20.273469 -6.341117 2.200375 31.165602 1.125128 7.190939 17.699583 0.000000 0.000000 0.000000 -12.571228 2.043765 -65.498278 31.072672 -42.742774 108.593328 -11.959820 -24.601745 26.147106 0.000000 0.000000 0.000000 6.418946 -1.758668 21.200260 0.580835 -0.291094 -0.136035 -5.360636 15.224844 3.159445 6.711076 -1.566911 -15.772898 0.000000 0.000000 0.000000 -9.097321 4.179241 -3.998187 -48.654926 20.221751 -14.031811 -52.347774 -62.308850 31.544574 0.000000 0.000000 0.000000 2.494524 4.565712 1.962124 45.482503 32.701377 9.071071 -37.846205 67.687546 -18.221390 0.000000 0.000000 0.000000 
-0.035387 1.033712 0.154305 -6.011523 1.827174 -1.565527 -0.204632 -1.558717 -16.373592 -0.682376 -0.773055 23.537005 -0.116032 5.728628 15.141451 0.000000 0.000000 0.000000 -12.205932 -1.416621 -72.479245 26.685766 -38.616874 107.781111 -9.066862 -21.514661 22.542400 0.000000 0.000000 0.000000 9.042065 -2.741977 21.139119 1.050901 -0.289065 -4.929547 -3.851067 5.782286 4.865141 5.421279 -1.106585 -17.656320 0.000000 0.000000 0.000000 -13.418556 -0.297945 -2.425999 -45.509079 0.680340 -5.393705 -22.759546 -77.142210 18.796445 0.000000 0.000000 0.000000 6.179682 3.301961 1.435387 49.394277 17.455152 2.413746 7.277867 55.319550 7.630200 0.000000 0.000000 0.000000 
